<?xml version="1.0" standalone="no"?>
<!DOCTYPE svg PUBLIC "-//W3C//DTD SVG 20010904//EN"
 "http://www.w3.org/TR/2001/REC-SVG-20010904/DTD/svg10.dtd">
<svg version="1.0" xmlns="http://www.w3.org/2000/svg"
 width="800.000000pt" height="800.000000pt" viewBox="0 0 800.000000 800.000000"
 preserveAspectRatio="xMidYMid meet">
<metadata>
Created by potrace 1.14, written by Peter Selinger 2001-2017
</metadata>
<g transform="translate(0.000000,800.000000) scale(0.100000,-0.100000)"
fill="#000000" stroke="none">
<path d="M4219 7507 c13 -16 12 -18 -10 -15 -13 2 -30 7 -36 11 -8 5 -13 4
-13 -2 0 -13 -22 -10 -32 4 -5 7 -8 6 -8 0 0 -6 -11 -12 -26 -13 -17 -1 -23 2
-18 11 5 9 4 9 -7 0 -7 -7 -21 -13 -32 -13 -10 0 -15 -4 -12 -10 3 -5 1 -10
-5 -10 -15 0 -121 -76 -114 -82 7 -7 -43 -1 -55 7 -6 3 -11 0 -11 -8 0 -8 -7
-18 -16 -21 -15 -6 -15 -4 -3 11 11 13 11 15 1 9 -7 -4 -17 -18 -22 -30 -7
-17 -9 -17 -9 -3 -1 11 -10 17 -28 18 -17 1 -21 3 -10 6 20 5 22 19 5 29 -7 4
-8 3 -4 -4 4 -7 1 -12 -8 -12 -9 0 -16 8 -16 18 0 14 -2 15 -10 2 -8 -13 -10
-13 -10 1 0 15 -13 24 -73 48 -35 14 -50 14 -42 1 4 -6 10 -8 14 -5 5 2 17 -5
27 -16 16 -18 16 -19 1 -13 -9 3 -17 9 -17 13 0 4 -6 8 -12 8 -7 0 -37 7 -65
16 -29 9 -53 13 -53 9 0 -3 -5 -1 -11 5 -7 7 -21 8 -40 3 -16 -5 -29 -6 -29
-3 0 3 -7 0 -15 -7 -8 -7 -15 -9 -15 -4 0 5 -5 1 -11 -8 -5 -10 -16 -15 -24
-12 -8 4 -15 1 -15 -5 0 -14 27 -15 35 -1 4 6 11 8 16 5 5 -4 9 -1 9 6 0 7 3
9 7 6 3 -4 11 -3 17 2 23 17 56 20 56 4 0 -12 3 -13 13 -4 8 6 17 8 21 4 3 -4
13 -8 20 -9 30 -4 56 -16 56 -25 0 -5 6 -9 14 -9 8 0 16 -7 20 -15 3 -9 0 -15
-9 -15 -8 0 -15 5 -15 11 0 6 -7 8 -16 5 -10 -4 -13 -2 -8 6 5 7 2 9 -8 5 -9
-3 -21 0 -28 6 -10 9 -11 9 -5 -2 6 -11 4 -13 -8 -8 -10 3 -17 4 -17 1 0 -3
13 -10 30 -15 17 -6 27 -16 23 -22 -4 -7 0 -8 11 -4 10 4 15 3 11 -3 -3 -5
-24 -9 -46 -8 -31 1 -38 5 -34 17 8 26 -8 41 -25 23 -13 -14 -12 -15 3 -9 21
8 22 -3 2 -29 -14 -19 -14 -19 -15 1 0 14 -3 16 -8 7 -5 -7 -18 -14 -31 -17
-17 -3 -21 0 -16 14 3 11 0 18 -9 18 -9 0 -14 -3 -12 -6 2 -3 -2 -11 -9 -18
-10 -10 -14 -9 -19 2 -3 8 -1 17 4 20 14 9 12 25 -2 25 -6 0 -8 -3 -5 -7 4 -3
-1 -15 -10 -26 -10 -11 -13 -18 -8 -14 6 3 12 -4 12 -16 2 -17 0 -19 -7 -7
-10 16 -70 22 -70 8 0 -5 -5 -6 -12 -2 -7 5 -9 2 -5 -9 4 -12 2 -14 -10 -10
-9 4 -14 2 -10 -3 3 -6 -7 -11 -23 -12 -15 -1 -48 -9 -71 -17 l-44 -15 25 19
c13 11 28 17 32 15 3 -2 9 0 12 5 9 14 -18 7 -47 -12 -15 -10 -27 -24 -27 -32
0 -8 -4 -14 -9 -12 -5 1 -9 -2 -9 -8 0 -5 -8 -12 -17 -15 -9 -3 -16 -10 -16
-15 0 -6 -8 -18 -17 -28 -10 -11 -17 -36 -17 -63 0 -24 -3 -45 -7 -45 -5 -1
-12 -3 -18 -4 -5 -1 -16 -3 -22 -4 -9 -1 -8 -4 2 -11 11 -7 11 -10 2 -10 -7 0
-10 -4 -7 -10 3 -6 -1 -7 -9 -4 -9 3 -16 1 -16 -6 0 -6 -4 -8 -10 -5 -5 3 -10
1 -10 -4 0 -6 -3 -10 -7 -9 -17 6 -163 -109 -163 -128 0 -5 -9 -15 -20 -22
-11 -7 -20 -18 -20 -26 0 -7 -9 -21 -20 -31 -11 -10 -20 -25 -20 -33 0 -9 -6
-12 -17 -8 -10 4 -14 4 -11 0 4 -4 3 -14 -2 -23 -4 -9 -11 -36 -15 -60 -3 -24
-10 -54 -15 -66 -6 -16 -5 -25 3 -29 9 -3 8 -5 -1 -5 -7 -1 -11 -4 -9 -8 2 -5
1 -34 -2 -66 -7 -54 -6 -58 11 -53 15 3 17 2 8 -9 -8 -9 -8 -15 0 -20 6 -4 7
-12 1 -23 -5 -10 -6 -24 -1 -32 4 -8 6 -26 5 -40 -2 -14 -4 -33 -4 -44 -1 -15
-4 -16 -15 -7 -10 8 -16 9 -21 1 -9 -14 4 -32 20 -26 18 7 37 -44 29 -80 -7
-35 -9 -121 -2 -149 2 -11 14 -36 26 -55 12 -19 22 -39 23 -45 0 -9 4 -25 12
-57 6 -22 50 -111 73 -148 12 -19 30 -57 40 -85 9 -27 24 -57 31 -66 8 -9 15
-32 17 -50 6 -59 17 -88 60 -162 72 -125 92 -152 152 -203 97 -82 149 -129
152 -137 2 -4 8 -4 13 -1 6 3 8 -5 5 -20 -3 -14 -2 -25 2 -25 18 3 22 -3 13
-20 -9 -17 -8 -18 12 -13 19 5 20 3 10 -10 -13 -15 0 -38 22 -38 5 0 3 5 -5
11 -13 9 -13 10 0 6 8 -2 16 -9 16 -15 1 -7 3 -14 4 -17 1 -3 4 -9 5 -15 1 -5
3 -11 5 -12 16 -21 27 -294 16 -425 -1 -18 -12 -43 -23 -55 -12 -13 -23 -36
-26 -53 -11 -70 -18 -84 -48 -90 -16 -4 -29 -10 -29 -15 0 -4 -10 -10 -23 -14
-12 -3 -34 -23 -47 -45 -14 -22 -28 -41 -32 -41 -5 0 -8 -5 -8 -10 0 -17 -61
-75 -99 -95 -18 -9 -38 -29 -43 -43 -6 -15 -30 -43 -55 -62 -24 -19 -61 -51
-82 -70 -21 -19 -77 -71 -125 -115 -100 -91 -538 -524 -576 -570 -51 -61 -130
-173 -130 -184 0 -6 -4 -11 -8 -11 -5 0 -15 -12 -23 -27 -7 -16 -23 -41 -34
-58 -29 -43 -44 -68 -52 -85 -4 -8 -38 -68 -75 -133 -37 -66 -68 -122 -68
-125 0 -4 -6 -19 -14 -34 -8 -14 -18 -46 -22 -70 -4 -24 -8 -45 -9 -48 -6 -27
-19 -110 -21 -130 -1 -14 -3 -25 -4 -25 -20 0 -34 -392 -18 -500 5 -27 10 -61
12 -75 3 -14 7 -43 11 -64 3 -21 8 -48 10 -60 3 -12 8 -41 10 -66 3 -25 7 -56
9 -70 2 -14 7 -45 10 -70 3 -25 9 -67 13 -95 3 -27 7 -54 8 -60 1 -10 18 -106
20 -115 2 -6 13 -66 20 -105 3 -16 8 -41 10 -55 3 -14 8 -41 11 -60 3 -19 8
-44 10 -55 2 -11 6 -37 8 -58 3 -20 12 -65 21 -100 8 -34 17 -75 19 -92 3 -16
7 -41 10 -55 22 -100 47 -227 52 -265 1 -11 5 -31 8 -45 5 -26 16 -101 20
-135 3 -20 10 -20 2301 -20 l2298 0 0 36 c0 19 -2 40 -5 45 -3 5 -4 35 -4 66
1 32 -3 58 -8 58 -4 0 -6 6 -3 14 3 7 0 19 -6 25 -8 8 -8 11 1 11 9 0 10 6 4
18 -5 9 -10 44 -11 77 -4 97 -5 110 -16 117 -6 5 -5 8 3 8 10 0 10 5 2 20 -8
15 -8 20 1 20 8 0 8 4 2 12 -5 7 -11 31 -12 53 -3 47 -8 80 -10 80 -2 0 -4 10
-7 23 -3 17 -1 21 8 16 8 -5 7 -1 -2 10 -15 19 -20 33 -25 77 -1 14 -8 36 -14
47 -6 11 -11 33 -11 48 0 30 -34 92 -62 112 -13 9 -15 18 -8 35 22 56 22 56
34 195 1 18 -4 45 -11 59 -8 15 -15 36 -18 47 -2 12 -4 21 -5 21 -1 0 -3 10
-6 23 -2 13 -10 35 -17 50 -7 15 -13 34 -12 42 0 8 -3 18 -7 21 -8 5 -19 40
-20 67 -1 6 -5 12 -10 12 -5 0 -7 4 -4 9 3 5 -1 21 -9 37 -7 15 -12 31 -9 36
3 4 0 8 -7 8 -7 0 -9 3 -6 7 4 3 2 12 -4 20 -6 7 -9 13 -6 13 3 0 0 12 -8 27
-8 15 -12 30 -9 35 3 4 0 8 -6 8 -6 0 -9 4 -5 9 3 5 -1 16 -9 24 -8 8 -12 17
-9 20 8 8 7 117 -2 152 -4 17 -7 45 -8 63 -1 17 -5 32 -9 32 -5 0 -4 9 2 20 6
11 7 20 2 20 -4 0 -8 15 -9 33 -1 33 -7 74 -18 117 -4 14 -8 35 -9 47 -1 12
-5 25 -9 29 -4 4 -7 18 -7 30 0 13 -4 25 -10 29 -5 3 -7 12 -4 20 3 8 2 20 -2
27 -4 7 -9 19 -10 28 -1 8 -4 24 -7 35 -16 62 -30 122 -32 140 -2 11 -4 20 -5
20 -2 0 -9 33 -14 70 -2 17 -7 37 -10 45 -3 8 -7 33 -10 55 -2 22 -9 52 -15
68 -6 15 -8 27 -6 27 2 0 0 12 -6 28 -6 15 -13 36 -15 47 -2 11 -5 31 -8 45
-3 14 -7 49 -10 79 -15 147 -36 214 -88 282 -15 20 -28 41 -28 46 0 5 -27 38
-60 73 -33 35 -61 67 -61 72 -3 16 -6 24 -24 61 -10 20 -22 37 -27 37 -4 0 -8
5 -8 12 0 13 -3 16 -88 106 -32 34 -57 62 -54 62 3 0 -8 10 -24 22 -16 12 -31
25 -34 28 -3 4 -21 15 -40 26 -19 10 -37 21 -40 24 -3 3 -27 16 -55 30 -27 14
-53 29 -57 35 -4 5 -8 7 -8 2 0 -4 -11 0 -25 9 -14 9 -25 12 -25 8 0 -5 -7 0
-16 11 -8 11 -16 18 -17 15 -1 -3 -34 5 -72 17 -167 53 -245 74 -255 68 -5 -3
-10 -1 -10 6 0 7 -3 10 -6 7 -3 -3 -42 7 -87 23 -45 16 -84 29 -87 29 -3 0
-19 5 -37 11 -26 8 -31 14 -27 37 2 15 6 65 8 112 3 47 5 88 5 91 1 4 16 12
34 19 36 14 110 61 115 73 2 4 9 13 16 20 18 18 49 80 94 187 46 110 54 131
57 145 2 6 10 35 19 65 8 30 17 66 20 80 3 14 7 36 10 49 3 12 8 42 10 65 3
22 8 50 10 62 2 12 7 45 11 75 3 30 8 61 10 69 14 55 25 379 14 386 -13 8 -1
94 15 105 4 4 9 20 9 37 1 21 6 28 16 24 9 -3 12 -1 7 6 -4 7 -3 12 2 12 11 0
14 45 11 165 0 10 -4 24 -10 31 -10 12 -20 59 -22 106 0 15 -4 25 -9 22 -4 -3
-9 3 -9 13 -1 10 -2 25 -3 33 -1 8 3 21 9 29 7 11 7 13 -2 7 -19 -11 -16 5 5
21 9 8 11 11 3 7 -11 -5 -13 -1 -9 17 3 13 9 33 13 43 6 14 5 17 -3 12 -22
-13 -12 13 10 28 28 20 17 32 -14 15 -21 -11 -22 -11 -8 5 19 24 22 49 7 58
-9 6 -9 8 1 8 6 0 12 7 12 15 0 8 -5 15 -11 15 -8 0 -7 5 1 15 11 13 15 13 21
3 5 -8 8 -5 6 9 -1 20 -3 21 -18 7 -10 -9 -19 -11 -23 -6 -3 6 0 12 6 15 10 3
10 8 -1 18 -9 9 -11 9 -7 2 4 -7 2 -13 -3 -13 -14 0 -14 13 1 28 9 9 9 12 -2
12 -17 0 -53 57 -45 71 4 5 0 7 -7 4 -17 -7 -42 45 -28 59 5 5 10 15 10 21 0
5 -5 3 -10 -5 -8 -13 -11 -13 -22 -1 -10 10 -10 12 0 7 14 -8 17 29 3 38 -10
6 -9 31 1 41 7 7 48 -48 48 -64 0 -6 5 -11 11 -11 6 0 1 15 -11 33 -11 17 -26
44 -32 60 -5 15 -14 27 -19 27 -5 0 -8 3 -7 8 3 12 -40 102 -49 101 -19 -3
-33 2 -33 12 0 8 6 7 17 -2 14 -12 16 -12 11 1 -2 8 -11 15 -19 16 -26 2 -49
16 -49 31 0 12 2 12 16 -1 8 -9 18 -16 22 -16 4 0 -17 23 -45 51 -29 28 -53
58 -53 65 0 8 -7 14 -15 14 -8 0 -15 5 -15 10 0 6 -7 10 -15 10 -8 0 -15 9
-15 21 0 11 -5 17 -10 14 -6 -4 -7 -11 -4 -17 4 -6 -1 -6 -14 1 -12 6 -24 17
-28 24 -5 8 -2 7 9 -2 19 -15 33 -9 22 8 -3 6 -19 11 -35 11 -16 0 -32 5 -35
10 -4 6 -11 8 -16 5 -5 -4 -9 -1 -9 5 0 7 -7 10 -15 6 -8 -3 -15 -1 -15 4 0 6
-7 10 -16 10 -9 0 -12 5 -8 12 4 7 3 8 -4 4 -7 -4 -27 5 -46 19 -22 16 -37 22
-41 15 -9 -14 -28 -1 -22 15 4 8 -4 12 -21 11 -15 -1 -33 5 -40 12 -7 6 -27
12 -44 12 -17 0 -41 8 -52 18 -20 16 -20 16 -7 -1z m-544 -77 c-3 -5 -1 -10 6
-10 7 0 10 -3 6 -6 -9 -9 -28 6 -22 17 4 5 8 9 11 9 3 0 2 -4 -1 -10z m-13
-37 c8 -10 18 -25 22 -33 4 -8 -1 -5 -10 8 -9 12 -23 22 -30 22 -8 0 -14 5
-14 10 0 15 15 12 32 -7z m-498 -128 c-4 -8 -8 -15 -10 -15 -2 0 -4 7 -4 15 0
8 4 15 10 15 5 0 7 -7 4 -15z m-24 -1 c0 -4 -8 -13 -17 -21 -10 -8 -12 -12 -5
-8 6 3 12 2 12 -3 0 -6 -7 -13 -16 -16 -8 -3 -14 -9 -11 -13 2 -5 -7 -19 -20
-32 -31 -33 -29 -10 3 28 14 17 22 31 17 31 -4 0 -17 -13 -28 -29 -10 -16 -23
-28 -27 -25 -4 2 -5 -5 -3 -16 6 -29 -5 -56 -15 -39 -16 25 2 64 48 106 44 41
62 51 62 37z m1630 -79 c7 -9 11 -17 8 -20 -2 -2 -12 4 -21 15 -9 11 -13 20
-8 20 5 0 14 -7 21 -15z m43 -93 c-2 -6 6 -14 17 -17 12 -4 19 -12 18 -20 -2
-7 8 -22 22 -33 21 -17 23 -23 11 -34 -9 -8 -11 -8 -7 -1 4 7 -2 17 -14 23
-18 10 -52 61 -49 76 0 4 -5 11 -13 16 -10 8 -10 9 2 5 8 -2 14 -9 13 -15z"/>
<path d="M3436 7435 c-11 -8 -15 -15 -9 -15 6 0 16 7 23 15 16 19 11 19 -14 0z"/>
<path d="M3486 7442 c-3 -5 1 -9 9 -9 8 0 12 4 9 9 -3 4 -7 8 -9 8 -2 0 -6 -4
-9 -8z"/>
<path d="M3913 7431 c-17 -11 -33 -18 -35 -15 -3 2 -5 -2 -5 -10 0 -8 6 -12
14 -9 7 3 13 9 13 14 0 5 3 8 8 7 4 -2 18 5 32 15 33 23 13 22 -27 -2z"/>
<path d="M3446 7414 c-11 -8 -16 -14 -10 -14 13 0 39 18 34 24 -3 2 -14 -2
-24 -10z"/>
<path d="M3290 7401 c0 -6 4 -13 10 -16 6 -3 7 1 4 9 -7 18 -14 21 -14 7z"/>
<path d="M3423 7375 c0 -8 4 -12 9 -9 5 3 6 10 3 15 -9 13 -12 11 -12 -6z"/>
<path d="M3510 7386 c0 -2 7 -7 16 -10 8 -3 12 -2 9 4 -6 10 -25 14 -25 6z"/>
<path d="M3188 7333 c7 -3 16 -2 19 1 4 3 -2 6 -13 5 -11 0 -14 -3 -6 -6z"/>
<path d="M4921 7039 c-1 -8 6 -24 15 -35 15 -19 15 -19 6 1 -5 11 -12 27 -15
35 -5 13 -6 13 -6 -1z"/>
<path d="M2819 7023 c-13 -16 -12 -17 4 -4 9 7 17 15 17 17 0 8 -8 3 -21 -13z"/>
<path d="M2782 6998 c-15 -15 -15 -28 0 -28 6 0 8 3 5 7 -4 3 -2 12 4 20 14
16 7 17 -9 1z"/>
<path d="M2706 6906 c-14 -19 -26 -39 -26 -45 0 -6 -4 -11 -9 -11 -5 0 -11
-10 -14 -22 -6 -22 -6 -22 13 2 11 14 20 29 20 34 0 6 12 22 27 38 14 15 24
30 21 33 -3 3 -17 -10 -32 -29z"/>
<path d="M4989 6839 c5 -15 7 -30 4 -33 -4 -3 -1 -6 6 -6 13 0 6 37 -11 55 -5
6 -5 -1 1 -16z"/>
<path d="M4946 6831 c-4 -5 -2 -12 3 -15 5 -4 12 -2 15 3 4 5 2 12 -3 15 -5 4
-12 2 -15 -3z"/>
<path d="M4997 6784 c-3 -4 -1 -16 5 -28 6 -11 10 -22 9 -24 -2 -2 0 -6 2 -9
3 -2 5 12 4 31 -1 35 -7 43 -20 30z"/>
<path d="M5075 6569 c-4 -6 -5 -12 -2 -15 2 -3 7 2 10 11 7 17 1 20 -8 4z"/>
</g>
</svg>
